<svg width="24" height="24" viewBox="0 0 24 24" fill="none" xmlns="http://www.w3.org/2000/svg">
<g clip-path="url(#clip0_886_8564)">
<path d="M21 12C21 13.8569 20.4376 15.5825 19.4739 17.0157C17.858 19.4189 15.1136 21 12 21C8.88636 21 6.14202 19.4189 4.52609 17.0157C3.56237 15.5825 3 13.8569 3 12C3 7.02944 7.02944 3 12 3C16.9706 3 21 7.02944 21 12Z" stroke="#292929" stroke-width="1.9"/>
<path d="M14 9C14 10.1046 13.1046 11 12 11C10.8954 11 10 10.1046 10 9C10 7.89543 10.8954 7 12 7C13.1046 7 14 7.89543 14 9Z" stroke="#292929" stroke-width="1.9"/>
<path d="M14.9982 15H8.99821C7.18645 15 5.65603 16.2045 5.16406 17.8564C6.81468 19.7808 9.26406 21 11.9982 21C14.7323 21 17.1817 19.7808 18.8323 17.8564C18.3404 16.2045 16.81 15 14.9982 15Z" stroke="#292929" stroke-width="1.9"/>
</g>
<defs>
<clipPath id="clip0_886_8564">
<rect width="24" height="24" fill="white"/>
</clipPath>
</defs>
</svg>
